<svg xmlns="http://www.w3.org/2000/svg" version="1.1" xmlns:xlink="http://www.w3.org/1999/xlink" xmlns:svgjs="http://svgjs.dev/svgjs" width="1000" height="623" viewBox="0 0 1000 623"><g transform="matrix(1,0,0,1,-0.6060606060606233,0.2522267206477409)"><svg viewBox="0 0 396 247" data-background-color="#ffffff" preserveAspectRatio="xMidYMid meet" height="623" width="1000" xmlns="http://www.w3.org/2000/svg" xmlns:xlink="http://www.w3.org/1999/xlink"><defs></defs><g id="tight-bounds" transform="matrix(1,0,0,1,0.2400000000000091,-0.09999999999999432)"><svg viewBox="0 0 395.52 247.2" height="247.2" width="395.52"><g><svg></svg></g><g><svg viewBox="0 0 395.52 247.2" height="247.2" width="395.52"><g><path d="M0 0" fill="#bb84e8" data-fill-palette-color="tertiary"></path></g><g transform="matrix(1,0,0,1,91.81273941702999,37.08)"><svg viewBox="0 0 211.89452116594 173.04" height="173.04" width="211.89452116594"><g><svg viewBox="0 0 211.89452116594 173.04" height="173.04" width="211.89452116594"><g><svg viewBox="0 0 395.52000000000004 322.9945749583694" height="173.04" width="211.89452116594"><g transform="matrix(1,0,0,1,0,199.62360522396543)"><svg viewBox="0 0 395.52000000000004 123.37096973440396" height="123.37096973440396" width="395.52000000000004"><g><svg viewBox="0 0 395.52000000000004 123.37096973440396" height="123.37096973440396" width="395.52000000000004"><g><svg viewBox="0 0 395.52000000000004 123.37096973440396" height="123.37096973440396" width="395.52000000000004"><g transform="matrix(1,0,0,1,0,0)"><svg width="395.52000000000004" viewBox="0.9 -38.1 161.89 50.5" height="123.37096973440396" data-palette-color="#bb84e8"><path d="M34.6-29.9L23.4-0.5Q23.35-0.5 23.15-0.5 22.95-0.5 21.6 0.5L21.6 0.5 10.1-29.6 7.7-3.4Q7.6-2.6 8.45-2.05 9.3-1.5 10.8-1.5L10.8-1.5 12.9-1.5 12.9 0 0.9 0 0.9-1.5 2.5-1.5Q5.4-1.5 5.6-3.7L5.6-3.7 8.1-31.3Q8.2-32.25 7.43-32.88 6.65-33.5 5-33.5L5-33.5 3.4-33.5 3.4-35 12.8-35 23.5-6.8 34.3-35 43.3-35 43.3-33.6 41.3-33.6Q38.9-33.6 38.9-31.75L38.9-31.75Q38.9-31.6 38.9-31.4L38.9-31.4 41.2-3.7Q41.3-2.55 41.78-2.02 42.25-1.5 43.5-1.5L43.5-1.5 45.5-1.5 45.5 0 32.7 0 32.7-1.5 34.4-1.5Q35.8-1.5 36.3-1.95 36.8-2.4 36.8-2.93 36.8-3.45 36.8-3.7L36.8-3.7 34.6-29.9ZM67.7-6.1L67.7-6.1 68.6-5.2Q65.4 0.7 57.1 0.7L57.1 0.7Q53.25 0.7 50.52-2.7 47.8-6.1 47.8-10.3L47.8-10.3Q47.8-15.95 51.47-19.98 55.15-24 60.4-24L60.4-24Q62.9-24 64.8-22.55L64.8-22.55Q68.2-19.9 68.2-15.7L68.2-15.7Q68.2-15.1 67.97-14.25 67.75-13.4 67.6-13.4L67.6-13.4 51.5-12.9Q51.5-9 53.95-5.7 56.4-2.4 59.9-2.4L59.9-2.4Q62.4-2.4 64.52-3.43 66.65-4.45 67.7-6.1ZM52-14.9L52-14.9 63.7-15.4Q63.8-15.4 63.8-16.3L63.8-16.3Q63.8-18.9 62.27-20 60.75-21.1 58.07-21.1 55.4-21.1 53.7-19.45 52-17.8 52-14.9ZM82.4-1.4L82.4 0 72.4 0 72.4-1.4 73.09-1.4Q74.2-1.4 74.7-1.88 75.2-2.35 75.2-3.5L75.2-3.5 75.2-33Q75.2-33.95 74.55-34.38 73.9-34.8 72.3-34.8L72.3-34.8 72.3-36.2Q73.3-36.2 75.37-36.75 77.45-37.3 78.4-37.9L78.4-37.9 79.3-38.1 79.3-3.6Q79.3-2.8 79.37-2.45 79.45-2.1 79.95-1.75 80.45-1.4 81.5-1.4L81.5-1.4 82.4-1.4ZM96.09 0.7L96.09 0.7Q91.69 0.7 88.74-2.6 85.79-5.9 85.79-10.3L85.79-10.3Q85.79-15.9 90.02-19.95 94.24-24 98.94-24 103.64-24 106.52-20.68 109.39-17.35 109.39-13L109.39-13Q109.39-7.55 105.37-3.43 101.34 0.7 96.09 0.7ZM89.29-13Q89.29-8.35 92.12-5.28 94.94-2.2 98.47-2.2 101.99-2.2 103.99-4.85 105.99-7.5 105.99-10.3L105.99-10.3Q105.99-14.55 103.37-17.73 100.74-20.9 96.99-20.9 93.24-20.9 91.27-18.38 89.29-15.85 89.29-13L89.29-13ZM136.09-1.6L136.09 0 128.89 0 128.89-5.8Q127.84-2.95 125.49-1.13 123.14 0.7 119.67 0.7 116.19 0.7 114.19-1.55 112.19-3.8 112.19-7.6L112.19-7.6Q112.19-14.65 115.87-19.33 119.54-24 124.89-24L124.89-24Q126.09-24 128.89-23L128.89-23 128.89-33Q128.89-33.95 128.24-34.38 127.59-34.8 125.99-34.8L125.99-34.8 125.99-36.2Q127.04-36.2 129.09-36.75 131.14-37.3 131.99-37.9L131.99-37.9 132.89-38.1 132.89-3.4Q132.89-2.45 133.27-2.02 133.64-1.6 135.09-1.6L135.09-1.6 136.09-1.6ZM128.89-9.9L128.89-9.9 128.89-18.8Q128.69-19.1 128.29-19.6 127.89-20.1 126.62-20.9 125.34-21.7 123.99-21.7L123.99-21.7Q120.34-21.7 117.92-18.25 115.49-14.8 115.49-9.5L115.49-9.5Q115.49-6.55 117.27-4.63 119.04-2.7 121.82-2.7 124.59-2.7 126.74-5.73 128.89-8.75 128.89-9.9ZM137.19 11.6L137.19 11.6 137.99 7.7 138.69 7.7Q138.79 8.25 139.59 8.93 140.39 9.6 141.29 9.6L141.29 9.6Q144.39 9.6 145.69 7.5 146.99 5.4 148.39-0.1L148.39-0.1 140.79-19.8Q140.34-20.85 139.84-21.33 139.34-21.8 138.29-21.8L138.29-21.8 137.59-21.8 137.59-23.3 147.39-23.3 147.39-21.8 147.09-21.8Q144.99-21.8 144.99-20.6L144.99-20.6Q144.99-20.35 145.49-19L145.49-19 150.59-5.4 156.19-19.5Q156.79-20.7 156.79-21L156.79-21Q156.79-21.45 156.21-21.63 155.64-21.8 153.89-21.8L153.89-21.8 153.49-21.8 153.49-23.3 162.79-23.3 162.79-21.8 162.29-21.8Q160.59-21.8 159.94-21.3 159.29-20.8 158.79-19.4L158.79-19.4 148.69 5.9Q147.34 9.2 145.46 10.8 143.59 12.4 140.39 12.4L140.39 12.4Q139.19 12.4 137.19 11.6Z" opacity="1" transform="matrix(1,0,0,1,0,0)" fill="#bb84e8" class="undefined-text-0" data-fill-palette-color="primary" id="text-0"></path></svg></g></svg></g></svg></g></svg></g><g transform="matrix(1,0,0,1,126.82611513559497,0)"><svg viewBox="0 0 141.8677697288101 170.49868017294628" height="170.49868017294628" width="141.8677697288101"><g><svg xmlns="http://www.w3.org/2000/svg" xmlns:xlink="http://www.w3.org/1999/xlink" version="1.1" x="0" y="0" viewBox="22.299999999999997 19.400000000000002 44.10000000000001 52.999999999999986" style="enable-background:new 0 0 91 91;" xml:space="preserve" height="170.49868017294628" width="141.8677697288101" class="icon-icon-0" data-fill-palette-color="accent" id="icon-0"><g fill="#b19dd0" data-fill-palette-color="accent"><path d="M66.4 57.8V21.3c0-1-0.8-1.9-1.9-1.9s-1.9 0.8-1.9 1.9v30.2c-3.6-2.3-9.4-2.2-15 0.5-3.4 1.7-6.2 4.2-7.9 7-1.8 3-2.1 6.1-0.9 8.7 1.3 2.6 3.9 4.2 7.4 4.6 0.6 0.1 1.1 0.1 1.7 0.1 2.8 0 5.8-0.7 8.7-2.1 5.6-2.8 9.2-7.3 9.5-11.6C66.3 58.4 66.4 58.1 66.4 57.8z" fill="#b19dd0" data-fill-palette-color="accent"></path><path d="M24.2 26.2h31.2c1 0 1.9-0.8 1.9-1.9s-0.8-1.9-1.9-1.9H24.2c-1 0-1.9 0.8-1.9 1.9S23.1 26.2 24.2 26.2z" fill="#b19dd0" data-fill-palette-color="accent"></path><path d="M24.2 36.6h31.2c1 0 1.9-0.8 1.9-1.9s-0.8-1.9-1.9-1.9H24.2c-1 0-1.9 0.8-1.9 1.9S23.1 36.6 24.2 36.6z" fill="#b19dd0" data-fill-palette-color="accent"></path><path d="M24.2 47.1h20c1 0 1.9-0.8 1.9-1.9s-0.8-1.9-1.9-1.9h-20c-1 0-1.9 0.8-1.9 1.9S23.1 47.1 24.2 47.1z" fill="#b19dd0" data-fill-palette-color="accent"></path><path d="M24.2 57.5h9.6c1 0 1.9-0.8 1.9-1.9s-0.8-1.9-1.9-1.9h-9.6c-1 0-1.9 0.8-1.9 1.9S23.1 57.5 24.2 57.5z" fill="#b19dd0" data-fill-palette-color="accent"></path></g></svg><g></g></g></svg></g><g></g></svg></g></svg></g></svg></g></svg></g></svg><rect width="395.52" height="247.2" fill="none" stroke="none" visibility="hidden"></rect></g></svg></g></svg>